<svg width="1200" height="760" viewBox="0 0 1200 760" fill="none" xmlns="http://www.w3.org/2000/svg">
  <defs>
    <linearGradient id="bg" x1="0" y1="0" x2="1200" y2="760" gradientUnits="userSpaceOnUse">
      <stop stop-color="#FBFDFF"/>
      <stop offset="0.52" stop-color="#EEF4FB"/>
      <stop offset="1" stop-color="#E5EFF9"/>
    </linearGradient>
    <linearGradient id="board" x1="160" y1="140" x2="1020" y2="620" gradientUnits="userSpaceOnUse">
      <stop stop-color="#1E3D5F"/>
      <stop offset="1" stop-color="#0E243B"/>
    </linearGradient>
    <linearGradient id="chip" x1="0" y1="0" x2="1" y2="1">
      <stop stop-color="#6D89A8"/>
      <stop offset="1" stop-color="#2D4A69"/>
    </linearGradient>
    <filter id="soft" x="-20%" y="-20%" width="140%" height="140%">
      <feGaussianBlur stdDeviation="12"/>
    </filter>
  </defs>

  <rect width="1200" height="760" rx="28" fill="url(#bg)"/>

  <g opacity="0.3">
    <path d="M0 120H1200" stroke="#B9CADB"/>
    <path d="M0 220H1200" stroke="#B9CADB"/>
    <path d="M0 320H1200" stroke="#B9CADB"/>
    <path d="M0 420H1200" stroke="#B9CADB"/>
    <path d="M0 520H1200" stroke="#B9CADB"/>
    <path d="M0 620H1200" stroke="#B9CADB"/>
    <path d="M160 0V760" stroke="#B9CADB"/>
    <path d="M280 0V760" stroke="#B9CADB"/>
    <path d="M400 0V760" stroke="#B9CADB"/>
    <path d="M520 0V760" stroke="#B9CADB"/>
    <path d="M640 0V760" stroke="#B9CADB"/>
    <path d="M760 0V760" stroke="#B9CADB"/>
    <path d="M880 0V760" stroke="#B9CADB"/>
    <path d="M1000 0V760" stroke="#B9CADB"/>
  </g>

  <ellipse cx="600" cy="610" rx="360" ry="56" fill="#AFC4D8" opacity="0.32" filter="url(#soft)"/>

  <rect x="168" y="176" width="864" height="404" rx="26" fill="url(#board)"/>
  <rect x="168" y="176" width="864" height="404" rx="26" stroke="#406184" stroke-width="2"/>

  <rect x="232" y="236" width="346" height="282" rx="18" fill="#102A43" stroke="#4A6C90"/>
  <rect x="610" y="236" width="356" height="130" rx="16" fill="#173857" stroke="#52779F"/>
  <rect x="610" y="388" width="356" height="130" rx="16" fill="#173857" stroke="#52779F"/>

  <rect x="304" y="286" width="202" height="182" rx="14" fill="url(#chip)"/>
  <rect x="292" y="274" width="226" height="206" rx="18" stroke="#84A4C6" stroke-width="2"/>
  <text x="405" y="362" fill="#D9E8F6" font-family="Segoe UI, Arial, sans-serif" font-size="40" font-weight="700" text-anchor="middle">GPU</text>
  <text x="405" y="396" fill="#9FC0DF" font-family="Segoe UI, Arial, sans-serif" font-size="18" font-weight="600" text-anchor="middle">HARDWARE CORE</text>

  <g fill="#6A8CAE">
    <rect x="220" y="556" width="42" height="14" rx="4"/>
    <rect x="272" y="556" width="42" height="14" rx="4"/>
    <rect x="324" y="556" width="42" height="14" rx="4"/>
    <rect x="376" y="556" width="42" height="14" rx="4"/>
    <rect x="428" y="556" width="42" height="14" rx="4"/>
    <rect x="480" y="556" width="42" height="14" rx="4"/>
    <rect x="532" y="556" width="42" height="14" rx="4"/>
    <rect x="584" y="556" width="42" height="14" rx="4"/>
    <rect x="636" y="556" width="42" height="14" rx="4"/>
    <rect x="688" y="556" width="42" height="14" rx="4"/>
    <rect x="740" y="556" width="42" height="14" rx="4"/>
    <rect x="792" y="556" width="42" height="14" rx="4"/>
    <rect x="844" y="556" width="42" height="14" rx="4"/>
    <rect x="896" y="556" width="42" height="14" rx="4"/>
  </g>

  <text x="642" y="286" fill="#D8E8F6" font-family="Segoe UI, Arial, sans-serif" font-size="22" font-weight="700">MEMORY BANDWIDTH</text>
  <text x="642" y="325" fill="#8FD6B8" font-family="Segoe UI, Arial, sans-serif" font-size="34" font-weight="800">3.3 TB/s</text>

  <text x="642" y="440" fill="#D8E8F6" font-family="Segoe UI, Arial, sans-serif" font-size="22" font-weight="700">FP16 THROUGHPUT</text>
  <text x="642" y="479" fill="#8FD6B8" font-family="Segoe UI, Arial, sans-serif" font-size="34" font-weight="800">1,979 TFLOPS</text>

  <circle cx="980" cy="206" r="8" fill="#8FD6B8"/>
  <circle cx="952" cy="206" r="8" fill="#84A4C6"/>
</svg>
